<svg width="462" height="70" viewBox="0 0 462 70" fill="none" xmlns="http://www.w3.org/2000/svg">
<path d="M28.504 69.864C23.128 69.864 18.328 68.872 14.104 66.888C9.88 64.84 6.584 62.024 4.216 58.44C1.912 54.792 0.76 50.664 0.76 46.056V24.552C0.76 19.944 1.912 15.848 4.216 12.264C6.584 8.68 9.848 5.896 14.008 3.912C18.168 1.928 22.936 0.935995 28.312 0.935995C33.688 0.935995 38.456 1.8 42.616 3.528C46.776 5.192 50.008 7.528 52.312 10.536C54.68 13.544 55.864 17 55.864 20.904C55.864 22.824 55.224 24.328 53.944 25.416C52.664 26.504 50.968 27.048 48.856 27.048C48.408 27.048 47.736 26.984 46.84 26.856C46.968 26.088 47.032 24.872 47.032 23.208C47.032 20.456 46.232 17.992 44.632 15.816C43.096 13.64 40.888 11.944 38.008 10.728C35.192 9.512 31.96 8.904 28.312 8.904C24.728 8.904 21.528 9.576 18.712 10.92C15.896 12.2 13.688 14.056 12.088 16.488C10.552 18.856 9.784 21.544 9.784 24.552V46.056C9.784 49.128 10.552 51.88 12.088 54.312C13.688 56.68 15.896 58.536 18.712 59.88C21.592 61.224 24.856 61.896 28.504 61.896C32.216 61.896 35.512 61.288 38.392 60.072C41.272 58.856 43.512 57.192 45.112 55.08C46.712 52.904 47.512 50.408 47.512 47.592C47.512 46.568 47.448 45.352 47.32 43.944C48.216 43.816 48.856 43.752 49.24 43.752C51.352 43.752 53.048 44.36 54.328 45.576C55.672 46.792 56.344 48.424 56.344 50.472C56.344 54.248 55.16 57.608 52.792 60.552C50.424 63.496 47.128 65.8 42.904 67.464C38.744 69.064 33.944 69.864 28.504 69.864ZM134.953 69C133.673 69 132.585 68.616 131.689 67.848C130.793 67.016 130.345 65.992 130.345 64.776V6.024C130.345 4.808 130.761 3.816 131.593 3.048C132.489 2.216 133.609 1.8 134.953 1.8H157.417C162.857 1.8 167.657 2.824 171.817 4.872C175.977 6.92 179.209 9.8 181.513 13.512C183.881 17.16 185.065 21.352 185.065 26.088V44.52C185.065 49.256 183.881 53.48 181.513 57.192C179.209 60.904 175.945 63.816 171.721 65.928C167.561 67.976 162.793 69 157.417 69H134.953ZM156.457 61.128C162.601 61.128 167.401 59.688 170.857 56.808C174.313 53.864 176.041 49.8 176.041 44.616V25.992C176.041 20.872 174.313 16.872 170.857 13.992C167.401 11.112 162.601 9.672 156.457 9.672H139.369V61.128H156.457ZM197.564 6.024C197.564 4.808 198.012 3.816 198.908 3.048C199.804 2.216 200.892 1.8 202.172 1.8H244.7C244.7 4.488 244.156 6.472 243.068 7.752C241.98 9.032 240.284 9.672 237.98 9.672H206.588V31.176H233.468C233.468 33.864 232.924 35.848 231.836 37.128C230.748 38.408 229.084 39.048 226.844 39.048H206.588V61.128H239.996C242.236 61.128 243.9 61.768 244.988 63.048C246.076 64.328 246.62 66.312 246.62 69H202.172C200.892 69 199.804 68.616 198.908 67.848C198.012 67.016 197.564 65.992 197.564 64.776V6.024ZM262.266 69C260.986 69 259.898 68.584 259.002 67.752C258.106 66.92 257.658 65.928 257.658 64.776V6.024C257.658 4.808 258.106 3.816 259.002 3.048C259.898 2.216 260.986 1.8 262.266 1.8H288.954C294.522 1.8 298.938 3.464 302.202 6.792C305.53 10.12 307.194 14.6 307.194 20.232C307.194 23.24 306.394 26.056 304.794 28.68C303.194 31.304 301.114 33.256 298.554 34.536V34.728C302.202 35.816 305.018 37.704 307.002 40.392C308.986 43.016 309.978 46.216 309.978 49.992C309.978 53.704 309.178 57 307.578 59.88C306.042 62.76 303.866 65 301.05 66.6C298.234 68.2 295.002 69 291.354 69H262.266ZM288.762 31.464C291.386 31.464 293.626 30.408 295.482 28.296C297.402 26.12 298.362 23.496 298.362 20.424C298.362 17.032 297.498 14.376 295.77 12.456C294.106 10.536 291.77 9.576 288.762 9.576H266.586V31.464H288.762ZM290.682 61.224C293.946 61.224 296.506 60.264 298.362 58.344C300.218 56.36 301.146 53.608 301.146 50.088C301.146 46.696 300.218 44.04 298.362 42.12C296.57 40.2 294.01 39.24 290.682 39.24H266.586V61.224H290.682ZM372.69 9.768H349.266C349.266 4.456 351.762 1.8 356.754 1.8H405.042C405.042 7.112 402.546 9.768 397.554 9.768H381.714V62.376C381.714 64.808 380.946 66.664 379.41 67.944C377.874 69.224 375.634 69.864 372.69 69.864V9.768ZM434.845 69.864C429.469 69.864 424.797 69.096 420.829 67.56C416.925 66.024 413.949 63.976 411.901 61.416C409.853 58.856 408.829 56.104 408.829 53.16C408.829 50.728 409.469 48.872 410.749 47.592C412.029 46.248 413.981 45.576 416.605 45.576C416.605 51.016 418.237 55.176 421.501 58.056C424.765 60.872 429.341 62.28 435.229 62.28C440.861 62.28 445.181 61.352 448.189 59.496C451.197 57.576 452.701 54.76 452.701 51.048C452.701 48.808 452.125 46.984 450.973 45.576C449.885 44.104 447.997 42.856 445.309 41.832C442.685 40.744 438.877 39.656 433.885 38.568C427.997 37.288 423.325 35.816 419.869 34.152C416.413 32.424 413.885 30.344 412.285 27.912C410.685 25.48 409.885 22.472 409.885 18.888C409.885 15.304 410.877 12.168 412.861 9.48C414.909 6.728 417.789 4.616 421.501 3.144C425.213 1.672 429.533 0.935995 434.461 0.935995C439.133 0.935995 443.293 1.608 446.941 2.952C450.653 4.232 453.533 6.088 455.581 8.51999C457.693 10.888 458.749 13.576 458.749 16.584C458.749 18.44 458.141 19.912 456.925 21C455.773 22.024 453.949 22.536 451.453 22.536C450.749 17.672 449.021 14.12 446.269 11.88C443.581 9.64 439.645 8.51999 434.461 8.51999C429.469 8.51999 425.629 9.41599 422.941 11.208C420.253 12.936 418.909 15.4 418.909 18.6C418.909 20.84 419.389 22.696 420.349 24.168C421.373 25.576 423.069 26.792 425.437 27.816C427.869 28.84 431.261 29.832 435.613 30.792C442.141 32.2 447.261 33.768 450.973 35.496C454.749 37.224 457.469 39.336 459.133 41.832C460.797 44.328 461.629 47.4 461.629 51.048C461.629 56.872 459.197 61.48 454.333 64.872C449.469 68.2 442.973 69.864 434.845 69.864Z" fill="#303B43"/>
<path d="M92.113 69.864C87.441 69.864 83.121 68.968 79.153 67.176C75.249 65.32 72.145 62.856 69.841 59.784C67.537 56.648 66.385 53.192 66.385 49.416V21.384C66.385 17.608 67.505 14.184 69.745 11.112C72.049 7.976 75.153 5.512 79.057 3.72C83.025 1.864 87.377 0.935995 92.113 0.935995C96.849 0.935995 101.169 1.864 105.073 3.72C109.041 5.512 112.145 7.976 114.385 11.112C116.689 14.184 117.841 17.608 117.841 21.384V49.416C117.841 53.192 116.689 56.648 114.385 59.784C112.081 62.856 108.945 65.32 104.977 67.176C101.073 68.968 96.785 69.864 92.113 69.864ZM92.113 61.8C97.041 61.8 101.041 60.648 104.113 58.344C107.249 55.976 108.817 52.936 108.817 49.224V21.576C108.817 17.864 107.249 14.856 104.113 12.552C101.041 10.184 97.041 9 92.113 9C87.185 9 83.153 10.184 80.017 12.552C76.945 14.856 75.409 17.864 75.409 21.576V49.224C75.409 52.936 76.945 55.976 80.017 58.344C83.153 60.648 87.185 61.8 92.113 61.8ZM330.153 9.672H324.489C322.313 9.672 320.617 8.968 319.401 7.56C318.249 6.15199 317.673 4.23199 317.673 1.8H334.953C336.169 1.8 337.161 2.216 337.929 3.048C338.761 3.816 339.177 4.744 339.177 5.832V62.376C339.177 64.808 338.409 66.664 336.873 67.944C335.337 69.224 333.097 69.864 330.153 69.864V9.672Z" fill="#676767"/>
</svg>
